<svg width="24" height="24" viewBox="0 0 24 24" fill="none" xmlns="http://www.w3.org/2000/svg">
<path fill-rule="evenodd" clip-rule="evenodd" d="M12 24C18.6274 24 24 18.6274 24 12C24 5.37258 18.6274 0 12 0C5.37258 0 0 5.37258 0 12C0 18.6274 5.37258 24 12 24Z" fill="black"/>
<path d="M12.5647 11.4352H16.2353C16.5472 11.4352 16.8 11.6881 16.8 12C16.8 12.3118 16.5472 12.5647 16.2353 12.5647H12.5647V16.2352C12.5647 16.5471 12.3119 16.8 12 16.8C11.6881 16.8 11.4353 16.5471 11.4353 16.2352V12.5647H7.76472C7.45284 12.5647 7.20001 12.3118 7.20001 12C7.20001 11.6881 7.45284 11.4352 7.76472 11.4352H11.4353V7.76466C11.4353 7.45278 11.6881 7.19995 12 7.19995C12.3119 7.19995 12.5647 7.45278 12.5647 7.76466V11.4352Z" fill="white"/>
</svg>
