<svg width="20" height="20" viewBox="0 0 20 20" fill="none" xmlns="http://www.w3.org/2000/svg">
<g opacity="0.2">
<rect opacity="0.01" width="20" height="20" fill="black"/>
<path fill-rule="evenodd" clip-rule="evenodd" d="M1.66663 10.0001C1.66663 5.39771 5.39759 1.66675 9.99996 1.66675C12.2101 1.66675 14.3297 2.54472 15.8925 4.10752C17.4553 5.67033 18.3333 7.78994 18.3333 10.0001C18.3333 14.6025 14.6023 18.3334 9.99996 18.3334C5.39759 18.3334 1.66663 14.6025 1.66663 10.0001ZM3.33329 10.0001C3.33329 13.682 6.31806 16.6667 9.99996 16.6667C11.7681 16.6667 13.4638 15.9644 14.714 14.7141C15.9642 13.4639 16.6666 11.7682 16.6666 10.0001C16.6666 6.31818 13.6819 3.33341 9.99996 3.33341C6.31806 3.33341 3.33329 6.31818 3.33329 10.0001Z" fill="black"/>
<path d="M12.5 9.16675H10.8333V7.50008C10.8333 7.03984 10.4602 6.66675 9.99996 6.66675C9.53972 6.66675 9.16663 7.03984 9.16663 7.50008V9.16675H7.49996C7.03972 9.16675 6.66663 9.53984 6.66663 10.0001C6.66663 10.4603 7.03972 10.8334 7.49996 10.8334H9.16663V12.5001C9.16663 12.9603 9.53972 13.3334 9.99996 13.3334C10.4602 13.3334 10.8333 12.9603 10.8333 12.5001V10.8334H12.5C12.9602 10.8334 13.3333 10.4603 13.3333 10.0001C13.3333 9.53984 12.9602 9.16675 12.5 9.16675Z" fill="black"/>
</g>
</svg>
