<svg width="20" height="20" viewBox="0 0 20 20" fill="none" xmlns="http://www.w3.org/2000/svg">
<g opacity="0.2">
<rect opacity="0.01" width="20" height="20" fill="black"/>
<path fill-rule="evenodd" clip-rule="evenodd" d="M17.1001 12.6749L15.6001 11.1666V7.4499C15.6413 4.59602 13.5713 2.14898 10.7501 1.71657C9.14819 1.50562 7.53307 1.9947 6.31733 3.05887C5.10159 4.12304 4.40301 5.65921 4.40006 7.2749V11.1666L2.90006 12.6749C2.51486 13.0665 2.40157 13.6507 2.61246 14.1579C2.82334 14.6652 3.31742 14.9968 3.86672 14.9999H6.66672V15.2832C6.74777 17.0446 8.23841 18.4086 10.0001 18.3332C11.7617 18.4086 13.2523 17.0446 13.3334 15.2832V14.9999H16.1334C16.6827 14.9968 17.1768 14.6652 17.3877 14.1579C17.5985 13.6507 17.4853 13.0665 17.1001 12.6749ZM11.6667 15.2832C11.5707 16.116 10.8362 16.7256 10.0001 16.6666C9.16389 16.7256 8.4294 16.116 8.33339 15.2832V14.9999H11.6667V15.2832ZM5.57506 12.3499L4.59172 13.3332H15.4084L14.4167 12.3499C14.1047 12.0354 13.9308 11.6096 13.9334 11.1666V7.41657C13.9761 5.39832 12.526 3.65677 10.5334 3.33324C9.4018 3.18555 8.26241 3.54199 7.41672 4.30824C6.55979 5.05605 6.06764 6.13756 6.06672 7.2749V11.1666C6.06708 11.6108 5.89009 12.0367 5.57506 12.3499Z" fill="black"/>
</g>
</svg>
