<svg width="17" height="16" viewBox="0 0 17 16" fill="none" xmlns="http://www.w3.org/2000/svg">
<g opacity="0.2">
<rect opacity="0.01" width="16.6957" height="16" fill="black"/>
<path fill-rule="evenodd" clip-rule="evenodd" d="M14.4627 7.56L12.1392 3.10667C11.7853 2.42723 11.0603 1.99851 10.2679 2H6.42792C5.6355 1.99851 4.91056 2.42723 4.55661 3.10667L2.23313 7.56C2.13623 7.74633 2.0862 7.95182 2.08705 8.16V12C2.08705 13.1046 3.02141 14 4.174 14H12.5218C13.6744 14 14.6088 13.1046 14.6088 12V8.16C14.6096 7.95182 14.5596 7.74633 14.4627 7.56ZM5.80179 3.69993C5.9208 3.4736 6.16342 3.3315 6.42788 3.33326H10.2679C10.5323 3.3315 10.775 3.4736 10.894 3.69993L12.7861 7.33326H3.90962L5.80179 3.69993ZM4.17397 12.6667H12.5218C12.906 12.6667 13.2174 12.3683 13.2174 12.0001V8.66674H3.47832V12.0001C3.47832 12.3683 3.78977 12.6667 4.17397 12.6667Z" fill="black"/>
<path d="M10.7826 7H7.99997C7.61578 7 7.30432 7.29848 7.30432 7.66667C7.30432 8.03486 7.61578 8.33333 7.99997 8.33333H10.7826C11.1668 8.33333 11.4782 8.03486 11.4782 7.66667C11.4782 7.29848 11.1668 7 10.7826 7Z" fill="black"/>
<path d="M5.91306 8.33333C6.29726 8.33333 6.60871 8.03486 6.60871 7.66667C6.60871 7.29848 6.29726 7 5.91306 7C5.52886 7 5.21741 7.29848 5.21741 7.66667C5.21741 8.03486 5.52886 8.33333 5.91306 8.33333Z" fill="black"/>
</g>
</svg>
