<svg width="16" height="16" viewBox="0 0 16 16" fill="none" xmlns="http://www.w3.org/2000/svg">
<g opacity="0.2">
<rect opacity="0.01" width="16" height="16" fill="black"/>
<path d="M6.19329 13.9999C5.08071 13.9946 4.0168 13.5431 3.23996 12.7466C2.46908 12.016 2.02043 11.0088 1.99292 9.94702C1.96541 8.88528 2.36129 7.85618 3.09329 7.08661L7.99996 2.13328C8.52945 1.60475 9.25203 1.31572 9.99996 1.33328C10.8008 1.336 11.5671 1.66027 12.1266 2.23328C13.274 3.33801 13.3186 5.16041 12.2266 6.31994L7.29329 11.2733C6.97412 11.5946 6.53953 11.7747 6.08662 11.7733C5.59728 11.7739 5.12845 11.5768 4.78662 11.2266C4.08278 10.5451 4.05899 9.42398 4.73329 8.71327L9.28662 4.13994C9.55399 3.96237 9.90993 4.00052 10.1336 4.23072C10.3573 4.46091 10.3851 4.8178 10.2 5.07994L5.64662 9.65327C5.48866 9.84359 5.51239 10.1254 5.69996 10.2866C5.79377 10.3811 5.92023 10.4359 6.05329 10.4399C6.15285 10.4414 6.24885 10.403 6.31996 10.3333L11.2466 5.37994C11.822 4.7407 11.7775 3.75785 11.1466 3.17328C10.5619 2.56618 9.6045 2.52226 8.96662 3.07328L4.03996 7.99994C3.55609 8.51965 3.29948 9.21089 3.32701 9.92045C3.35454 10.63 3.66394 11.2993 4.18663 11.7799C4.71087 12.3234 5.43156 12.6333 6.18663 12.6399C6.83754 12.6452 7.46372 12.3909 7.92662 11.9333L12.8533 6.97994C13.1129 6.71853 13.5352 6.71703 13.7966 6.97661C14.058 7.23618 14.0595 7.65853 13.8 7.91994L8.87329 12.8733C8.16672 13.5923 7.2014 13.9982 6.19329 13.9999Z" fill="black"/>
</g>
</svg>
