<svg width="16" height="16" viewBox="0 0 16 16" fill="none" xmlns="http://www.w3.org/2000/svg">
<g opacity="0.2">
<rect opacity="0.01" width="16" height="16" fill="black"/>
<path fill-rule="evenodd" clip-rule="evenodd" d="M7.52662 13.8067C7.65243 13.9315 7.82275 14.001 7.99996 14C8.17716 14.001 8.34748 13.9315 8.47329 13.8067L13.6533 8.62001C15.0056 7.25358 15.0056 5.05311 13.6533 3.68668C12.2899 2.3271 10.0834 2.3271 8.71995 3.68668L7.99996 4.40668L7.27996 3.68668C5.91653 2.3271 3.71005 2.3271 2.34662 3.68668C0.994323 5.05311 0.994323 7.25358 2.34662 8.62001L7.52662 13.8067ZM3.29329 4.62668C3.69588 4.2231 4.24325 3.99743 4.81329 4.00001C5.38333 3.99743 5.9307 4.2231 6.33329 4.62668L7.52662 5.82668C7.6518 5.95289 7.8222 6.02388 7.99996 6.02388C8.17771 6.02388 8.34811 5.95289 8.47329 5.82668L9.66662 4.62668C10.5197 3.82072 11.8535 3.82072 12.7066 4.62668C13.5448 5.46928 13.5448 6.83074 12.7066 7.67334L7.99996 12.3867L3.29329 7.67334C2.4551 6.83074 2.4551 5.46928 3.29329 4.62668Z" fill="black"/>
</g>
</svg>
